<?xml version="1.0" standalone="no"?><!DOCTYPE svg PUBLIC "-//W3C//DTD SVG 1.1//EN" "http://www.w3.org/Graphics/SVG/1.1/DTD/svg11.dtd"><svg t="1750166939797" class="icon" viewBox="0 0 1024 1024" version="1.1" xmlns="http://www.w3.org/2000/svg" p-id="1458" xmlns:xlink="http://www.w3.org/1999/xlink" width="28" height="28"><path d="M512 512m-470.032787 0a470.032787 470.032787 0 1 0 940.065574 0 470.032787 470.032787 0 1 0-940.065574 0Z" fill="#9EDFC7" p-id="1459"></path><path d="M512 1013.508197C235.465443 1013.508197 10.491803 788.534557 10.491803 512S235.465443 10.491803 512 10.491803 1013.508197 235.465443 1013.508197 512 788.534557 1013.508197 512 1013.508197z m0-940.065574C270.176525 73.442623 73.442623 270.176525 73.442623 512c0 241.819279 196.733902 438.557377 438.557377 438.557377 241.819279 0 438.557377-196.738098 438.557377-438.557377 0-241.823475-196.738098-438.557377-438.557377-438.557377z" fill="#9EDFC7" p-id="1460"></path><path d="M109.026623 275.191607c5.325639 2.774033 88.769049 45.463082 176.610623 45.463082 47.754492 0 96.80577-12.615344 135.310688-51.120263 36.788459-36.788459 111.024262-85.323541 199.163804-101.031869 63.949639-11.402492 156.466361-8.745967 233.874885 68.662558a31.47541 31.47541 0 0 0 44.514623-44.510426c-96.604328-96.600131-210.708984-100.146361-289.439476-86.125115-102.4 18.251541-187.308066 73.17823-232.624262 118.494426-30.908852 30.904656-79.020066 40.007344-142.994885 27.043672-52.022557-10.537967-94.535344-32.297967-95.345312-32.713442a31.47541 31.47541 0 0 0-42.433049 13.379147 31.467016 31.467016 0 0 0 13.362361 42.45823zM587.192656 780.741246c-110.205902 0-173.484066-3.747672-205.177705-12.149508-18.66282-4.943738-19.665836-7.277115-26.187541-22.452459-5.976131-13.899541-14.159738-32.940066-35.600787-54.381115-35.030033-35.030033-89.797246-46.696918-158.405246-33.745836-47.582426 8.98518-85.995016 26.712131-87.606557 27.467541a31.454426 31.454426 0 0 0-15.246689 41.769967c7.306492 15.750295 26.011279 22.590951 41.778361 15.313836 0.335738-0.155279 33.846557-15.519475 73.895869-22.909902 32.52459-5.992918 76.468459-7.994754 101.069639 16.61482 12.896525 12.896525 17.454164 23.501639 22.280393 34.727869 24.924328 57.973508 56.58859 72.687213 289.200263 72.687213 125.507148 0 143.213115 70.009705 143.905574 72.989377l-0.104919-0.52459 61.788328-12.032c-0.982033-5.031869-26.091016-123.375213-205.588983-123.375213zM560.40918 598.129311c-22.800787-6.123016-47.297049-12.695082-73.618885-19.951213-18.536918-5.10741-24.131148-11.427672-24.521443-12.707672-0.188852-0.898098 0.763803-6.492328 8.724984-15.620196 56.739672-65.03659 208.295869-79.683148 290.497049-73.610492 114.071082 8.393443 184.546623-7.877246 215.472263-49.756328 24.878164-33.682885 12.510426-68.175738 11.024786-71.994754l-58.64918 22.884721s-0.167869-0.352525-0.369311-1.028197c0.482623 1.624131 1.682885 7.38623-3.172722 13.425312-6.316066 7.852066-36.456918 32.772197-159.685246 23.686295-198.731541-14.638164-352.302164 62.166033-365.803016 140.250229-2.551607 14.764066-5.069639 64.53718 69.753705 85.155673 26.468721 7.293902 51.099279 13.903738 74.02177 20.060327 193.120525 51.842098 244.71082 69.178754 270.881574 160.768a31.416656 31.416656 0 0 0 38.907803 21.613115 31.471213 31.471213 0 0 0 21.613115-38.907803c-37.031869-129.624131-124.168393-153.016656-315.077246-204.267017z" fill="#628A7B" p-id="1461"></path><path d="M999.440787 562.847475c-6.656-16.056656-24.928525-23.740852-40.993574-17.084852-0.545574 0.214033-55.518426 21.130492-155.278688 2.446688-17.089049-3.172721-33.527607 8.057705-36.733902 25.142558a31.47541 31.47541 0 0 0 25.142557 36.733901c34.690098 6.496525 65.028197 8.825705 90.703738 8.825705 63.055738 0 97.976656-14.046426 99.986885-14.881573 16.069246-6.651803 23.824787-25.121574 17.172984-41.182427zM308.232393 495.418754a31.47541 31.47541 0 1 0-20.53036-59.509508c-120.81941 41.686033-230.614033 0.961049-232.145836 0.381902a31.471213 31.471213 0 0 0-40.657836 17.987147 31.47541 31.47541 0 0 0 17.95777 40.72918c3.516852 1.363934 60.071869 22.779803 139.515803 22.779804 40.641049 0 87.279213-5.60682 135.860459-22.368525z" fill="#628A7B" p-id="1462"></path></svg>