<?xml version="1.0" standalone="no"?><!DOCTYPE svg PUBLIC "-//W3C//DTD SVG 1.1//EN" "http://www.w3.org/Graphics/SVG/1.1/DTD/svg11.dtd"><svg t="1750166949327" class="icon" viewBox="0 0 1051 1024" version="1.1" xmlns="http://www.w3.org/2000/svg" p-id="1786" xmlns:xlink="http://www.w3.org/1999/xlink" width="28.73828125" height="28"><path d="M248.98439 759.67037c-79.516242-36.099564-85.550837-190.442976 39.465617-338.252285 123.922936-148.691323 342.333849-206.472226 434.243285-142.166222 93.254957 64.162003 17.757277 197.449585-118.522852 317.875967-137.841654 120.633385-274.283786 199.488117-355.18605 162.54254z" fill="#D98BD6" opacity=".44" p-id="1787"></path><path d="M173.302208 906.174659c-116.902827-48.312755-161.525524-290.524539 31.108986-533.415835C394.741668 126.933483 776.446632 50.841794 922.680917 169.688651c149.568837 117.838841-4.432569 306.382787-224.495008 481.458023-224.157502 176.294755-404.551821 306.175784-524.883701 255.027985z" fill="#FFA3FC" opacity=".44" p-id="1788"></path><path d="M902.439601 458.90817a59.603431 59.603431 0 0 1-27.46393-5.485585c-20.340318-9.445648-29.331458-28.003938-19.530305-41.823654 69.719589-95.9775 81.037266-181.523836 13.477711-230.304598-21.564337-15.471242-50.945296-26.649416-86.891858-32.355506-25.911405-4.117564-45.333708-20.002813-43.304176-36.162565 2.034032-16.141752 25.402897-26.329911 52.164815-22.045844 57.789903 9.211644 106.305161 28.723949 142.845732 55.935874 100.446069 75.556181 88.264379 184.678386-3.478555 300.046688-5.845591 7.519617-16.254254 11.668682-27.819434 12.19519zM112.483758 594.396287a49.172268 49.172268 0 0 1-29.718465 5.886092c-20.182815-2.466039-32.765012-17.599775-27.54493-34.268035 20.619322-65.192519 54.851357-131.915061 104.410631-196.041063C222.127971 288.787512 306.756293 217.141893 401.860779 166.997609c19.890311-10.570665 49.527774-8.433132 65.345521 4.626073 15.840248 13.063704 12.037688 31.563493-7.67712 41.513148-87.908874 44.361693-167.380115 108.703698-227.429053 182.648854-47.673745 58.496414-81.419772 119.647869-102.642104 179.705808-2.781043 7.861623-9.031641 14.445226-16.974265 18.904795zM353.629025 914.490789c-78.764731 39.794122-144.281254 51.404303-202.210659 27.576431-60.678948-25.227394-105.661651-88.570384-117.429335-184.94839-1.975531-16.456757 12.379693-32.427507 31.950499-35.136549 19.579806-2.722543 36.284067 8.874139 37.431585 25.371396 5.72859 73.760653 33.647026 122.370412 74.030657 139.659683 45.599212 19.282801 108.7982-0.0045 187.225425-46.68373 86.477851-51.86781 184.462382-129.030516 285.529462-216.529883 13.405709-11.758684 37.09408-11.686683 52.097314 0.211503 15.021235 11.884686 15.502742 30.627479 1.890029 41.846154-109.594712 89.969906-214.873857 170.143158-306.801294 224.688511-15.061735 8.842638-29.619463 16.848263-43.713683 23.944874z" fill="#BF6FBA" p-id="1789"></path><path d="M266.957671 781.275207c-9.882154 5.152581-22.167346 5.940093-32.796512 1.134018-43.385178-19.660807-65.237519-69.832091-54.563353-143.921249 9.495148-64.328505 44.325693-142.184222 105.792153-214.896357 12.118689-14.422725 37.967093-19.291801 56.93939-10.669667 18.999297 8.622135 23.715371 27.013922 11.317677 40.892139-57.168893 64.216003-90.959921 132.756574-101.602588 189.254957-9.985656 54.027844 2.772043 80.110252 15.637745 86.212347 16.515258 7.744621 21.645338 25.906905 12.249191 40.365631-3.240051 4.990578-7.771621 8.919139-12.973703 11.628181zM467.926311 700.260442c-13.239207 4.576572-28.903952 2.182534-39.326114-7.065111-13.266207-11.763184-12.933202-30.559977 1.602025-41.891154 35.906061-27.990437 73.706652-61.088455 109.774715-95.878498 59.904936-58.005906 110.73773-116.020813 137.081142-167.63212 25.299395-49.136268 18.319786-77.477711 3.550556-86.887357-19.881311-12.865701-84.281817-11.389678-168.815638 30.645478-18.949796 9.436647-45.608213 6.799606-60.345943-6.052594-14.71073-12.847701-11.776684-31.522993 7.384615-41.540149C572.647448 224.607509 678.763606 220.332443 738.520039 260.414569c50.441288 33.633526 53.843341 88.394881 16.951765 153.303895-32.027 56.858388-90.185909 119.05836-156.83645 180.367319-40.32063 36.972578-80.681761 70.804106-120.466883 100.756574a37.427085 37.427085 0 0 1-10.24216 5.418085z" fill="#BF6FBA" p-id="1790"></path><path d="M568.358881 92.836451c31.572493-6.160596 66.848545 5.967093 77.869216 26.212909 11.043173 20.259317-5.535086 40.433132-36.108564 45.923218-30.618478 5.467585-64.459007-5.310083-76.496695-24.898889-12.015188-19.570806 3.123049-41.094642 34.736043-47.237238zM335.34974 697.042891c22.104345-9.769653 48.888764-2.011531 58.833919 16.780762 9.967656 18.792294 0.090001 41.045141-21.087329 50.229785-21.204331 9.171143-46.431725 2.241035-57.326396-15.975249-10.87217-18.202784-2.54704-41.279145 19.579806-51.035298zM780.699198 479.450991c49.487273-5.850091 100.162565 22.689355 110.427226 60.79145 10.341162 38.156096-20.835326 70.4171-66.943046 74.926171-46.184222 4.428069-92.485445-19.696808-106.197159-56.525383-13.644213-36.729574 13.167206-73.405147 62.712979-79.192238zM41.954156 634.019407c17.883279-11.245676 42.120658-8.98214 53.415834 4.779074 11.317677 13.770215 5.877092 33.390522-11.439179 44.109689-17.338771 10.714667-40.451132 8.878639-52.331317-4.369568-11.871185-13.230207-7.551118-33.27802 10.354662-44.519195z" fill="#804D00" p-id="1791"></path></svg>