<?xml version="1.0" standalone="no"?><!DOCTYPE svg PUBLIC "-//W3C//DTD SVG 1.1//EN" "http://www.w3.org/Graphics/SVG/1.1/DTD/svg11.dtd"><svg t="1750166957228" class="icon" viewBox="0 0 1091 1024" version="1.1" xmlns="http://www.w3.org/2000/svg" p-id="1951" xmlns:xlink="http://www.w3.org/1999/xlink" width="29.83203125" height="28"><path d="M395.981283 394.769718c-12.812526 0.100205-25.579504-4.664069-35.190037-14.31104a43451.154879 43451.154879 0 0 1-109.883462-110.685099c-18.250903-18.396655-16.060066-49.327996 4.199484-69.655867 20.273214-20.323316 50.603327-22.017685 68.539952-3.306752a15485.178329 15485.178329 0 0 0 108.731109 111.910328c19.070759 19.457913 18.874904 51.345752-0.847184 71.081505a50.73997 50.73997 0 0 1-35.549862 14.966925z" fill="#DF8800" p-id="1952"></path><path d="M189.432257 393.380518c-12.81708 0.323388-25.488409-4.076506-34.884868-13.19968A28294.802526 28294.802526 0 0 0 20.018148 250.333885c-16.993791-16.214927-12.698657-45.000979 8.799786-65.406281 21.507553-20.377973 51.514278-24.290508 67.897732-7.715755 41.056561 41.316182 85.224019 85.524633 131.318139 131.564096 18.405765 18.419429 17.358171 49.751588-2.760182 69.387137a53.267859 53.267859 0 0 1-35.841366 15.217436zM441.770234 208.912944c-12.4527 0.154862-24.796086-4.536536-33.973917-14.13796a9169.769238 9169.769238 0 0 1-94.351748-100.118067c-17.007455-18.255458-14.037755-49.501076 5.511253-70.238876C338.52305 3.675687 366.990268 1.790019 383.756321 20.560164a6506.157673 6506.157673 0 0 0 93.572885 102.126714c18.250903 19.558118 18.191691 51.445957-0.997492 71.177155-9.57865 9.879263-22.11789 14.889494-34.56148 15.048911z" fill="#FFC93F" p-id="1953"></path><path d="M884.597171 525.741696a3460.511485 3460.511485 0 0 0-4.449995-202.631937c-91.44126-88.334917-182.58646-181.10161-266.612579-272.160271 2.286487 79.876737 3.889761 159.758029 4.82804 239.639321" fill="#9E5C6E" p-id="1954"></path><path d="M884.273783 561.642274l-0.127533-0.00911c-20.80612 0.259621-37.403647-15.832328-37.271559-35.882359a3936.506147 3936.506147 0 0 0-3.261205-189.509688c-65.000907-63.256436-129.819625-128.539738-191.960146-193.608967 1.616938 49.614945 2.87405 99.234445 3.762228 148.853946 0.396264 20.619376-15.991745 36.961836-36.533689 36.670331h-0.132088c-20.601156-0.368935-37.353545-17.453821-37.45375-38.264496a23736.604217 23736.604217 0 0 0-2.541553-240.263321c-0.223183-15.208327 7.929828-28.672182 20.555609-33.964808 12.648554-5.28807 27.387741-1.343653 37.695152 9.879264 84.208309 91.801085 175.758883 185.10524 267.837808 273.772653 7.424251 7.150965 11.942567 16.460884 12.484583 25.916556a3060.48558 3060.48558 0 0 1 4.978347 200.472983c-0.150307 19.539899-17.28985 35.618183-38.032204 35.937016z" fill="#9E5C6E" p-id="1955"></path><path d="M575.698247 837.551108a4264.740005 4264.740005 0 0 1-223.178436-1.926662c-87.651704-89.469051-179.270599-179.070189-268.275064-262.864015 80.591833 1.384645 161.165448 2.350254 241.725398 2.892269" fill="#9E5C6E" p-id="1956"></path><path d="M575.224553 875.232595c-0.00911 0 0 0 0 0a3754.530024 3754.530024 0 0 1-220.955716-2.14529c-9.523993-0.37349-18.865795-4.709617-26.00765-12.024553-87.988755-89.992848-180.17244-179.917374-269.964879-263.834178-11.118157-10.380286-14.793844-25.511182-9.19605-38.578774 5.588684-13.053928 19.289387-21.571319 34.556926-21.484779 80.692038 0.546571 161.370412 0.910951 242.030566 1.106805h0.022774c20.842558 0.050102 37.781692 16.879922 37.954773 37.608612 0.163971 20.742354-16.44722 37.399093-37.212348 37.148581a14660.462521 14660.462521 0 0 1-150.402562-2.455013 10538.00395 10538.00395 0 0 1 190.074477 188.029392c70.006583 1.917552 140.004057 2.341144 209.992421 1.261667 20.241331-0.296059 36.319616 16.137497 35.845921 36.893515-0.46914 20.742354-16.952798 38.077751-36.738653 38.474015z" fill="#9E5C6E" p-id="1957"></path><path d="M343.150681 600.585428c68.266667 67.710987 136.556107 136.451348 201.802971 203.442683 216.027471 228.379966 400.089672 141.220176 424.17977 124.194503 11.947122-19.571782 116.182688-195.840797-126.335237-421.22829a11375.108691 11375.108691 0 0 1-204.581372-201.771088c-1.115915 0.291504-85.970999-95.627079-236.710612 56.957211-153.003327 151.500258-58.350965 237.676221-58.35552 238.404981z" fill="#BD6E83" p-id="1958"></path><path d="M881.969077 991.269531l-0.027328 0.004555c-72.47526 11.805925-203.788844 5.848305-362.790784-160.38203-65.192207-67.301059-133.554524-136.228165-202.035264-204.012028-5.907517-5.86197-39.667361-40.910809-40.68307-100.373134-1.061258-60.764985 33.053856-124.467788 99.088693-190.58461 65.265083-65.292412 127.39194-98.692429 186.836046-97.890792 60.036225 0.819856 95.781941 35.527088 101.698568 41.480153a9960.870955 9960.870955 0 0 0 205.291914 202.030709c134.829855 127.924847 167.373579 232.697874 168.680793 303.660955 1.994983 72.270296-26.071417 140.154363-48.826973 163.023788-22.20443 21.835495-69.874495 37.294333-107.232595 43.042434z m-319.151676-677.829517c-39.284761-0.378045-85.684049 25.697927-135.107695 75.158011-49.942888 49.979326-76.401459 97.239463-75.768348 137.093568 0.46003 30.530522 16.752389 47.742941 16.902695 47.911467 0.232293 0.218628 0.464585 0.441811 0.687768 0.664994 68.038929 67.624446 136.228165 136.146179 201.511467 202.795908 140.546072 144.841206 257.812792 151.404608 321.082893 143.10129l0.018219-0.004555c26.75463-3.484388 45.397242-9.829161 54.807366-13.74625 7.424251-17.053002 21.767174-58.902091 17.116769-114.711502-8.863553-107.433004-85.889013-198.273036-147.997652-258.928708a13290.783952 13290.783952 0 0 1-203.793399-201.4477c-0.464585-0.46914-0.264176-0.227738-0.450921-0.437257-2.464122-2.263713-19.571782-17.180536-49.009162-17.449266z" fill="#BD6E83" p-id="1959"></path></svg>