<?xml version="1.0" standalone="no"?><!DOCTYPE svg PUBLIC "-//W3C//DTD SVG 1.1//EN" "http://www.w3.org/Graphics/SVG/1.1/DTD/svg11.dtd"><svg t="1750166920263" class="icon" viewBox="0 0 1024 1024" version="1.1" xmlns="http://www.w3.org/2000/svg" p-id="1292" xmlns:xlink="http://www.w3.org/1999/xlink" width="28" height="28"><path d="M637.408078 898.133715a4029.741296 4029.741296 0 0 0-175.499218-168.241226 10467.327471 10467.327471 0 0 1 66.030619-226.195192 3947.418889 3947.418889 0 0 1 257.503935-51.70199 4331.864368 4331.864368 0 0 1 174.790526 183.734717 10133.146232 10133.146232 0 0 0-81.886602 219.548142 3672.189488 3672.189488 0 0 0-240.93926 42.855549z" fill="#A66789" p-id="1293"></path><path d="M628.480178 927.422278a4005.926774 4005.926774 0 0 0-198.47064-189.123227 10476.08838 10476.08838 0 0 1 73.480039-256.196519 3968.292743 3968.292743 0 0 1 292.376509-59.155484 4350.595851 4350.595851 0 0 1 197.562373 208.938114 10119.685142 10119.685142 0 0 0-93.747024 247.696279 3643.084207 3643.084207 0 0 0-271.201257 47.840837z m-134.582391-205.659392a4043.279772 4043.279772 0 0 1 152.535942 147.102631 3684.591611 3684.591611 0 0 1 210.384011-37.727709 10170.711024 10170.711024 0 0 1 70.294994-191.265597 4311.898781 4311.898781 0 0 0-152.002387-158.812354 3933.395732 3933.395732 0 0 0-222.900177 44.419561 10433.3428 10433.3428 0 0 0-58.312383 196.283468z" fill="#A66789" p-id="1294"></path><path d="M279.534507 697.239671a3915.804674 3915.804674 0 0 0-140.936189-109.643736c17.379265-18.364919 34.929594-36.62394 52.646914-54.777066a3963.955054 3963.955054 0 0 1 141.046159 111.6517 4845.259352 4845.259352 0 0 0-52.756884 52.769102zM749.674793 340.498379a4346.742844 4346.742844 0 0 0-82.306116-76.274081c19.957441-16.092214 40.0778-32.050021 60.357004-47.869347a4384.266905 4384.266905 0 0 1 82.261313 77.540767A4712.644194 4712.644194 0 0 0 749.674793 340.498379z" p-id="1295"></path><path d="M410.805592 410.952218a4119.851178 4119.851178 0 0 0-164.164206-128.529992c18.723338-18.014645 37.61774-35.919321 56.679132-53.705881a4172.449217 4172.449217 0 0 1 164.253811 130.928959 4852.378864 4852.378864 0 0 0-56.768737 51.306914zM158.828646 406.182797A3989.622767 3989.622767 0 0 0 37.560718 321.522519c18.006499-18.922912 36.188135-37.748074 54.544908-56.459193a4046.065668 4046.065668 0 0 1 121.410481 86.379062 5057.614669 5057.614669 0 0 0-54.687461 54.740409zM482.314325 218.668385a4256.404876 4256.404876 0 0 0-63.643872-51.339498c19.586803-17.285588 39.340596-34.448987 59.257308-51.482052a4306.17629 4306.17629 0 0 1 63.664236 52.284422 4915.464742 4915.464742 0 0 0-59.277672 50.537128z" fill="#8A8A8A" p-id="1296"></path><path d="M128.672545 194.654289a4082.270095 4082.270095 0 0 0-96.121552-64.226303c18.654098-19.032882 37.483332-37.955794 56.483631-56.768737a4127.443152 4127.443152 0 0 1 96.239668 65.59074c-19.041028 18.3527-37.906919 36.819442-56.601747 55.4043z" fill="#ADADAD" p-id="1297"></path><path d="M778.364632 660.599439a4154.38977 4154.38977 0 0 0-48.720593-49.384484c19.032882-15.660482 38.220536-31.194702 57.567034-46.594515 16.373247 16.589114 32.599869 33.308562 48.675791 50.146125-19.330207 15.143217-38.505642 30.424915-57.522232 45.832874z" opacity=".46" p-id="1298"></path></svg>