<?xml version="1.0" standalone="no"?><!DOCTYPE svg PUBLIC "-//W3C//DTD SVG 1.1//EN" "http://www.w3.org/Graphics/SVG/1.1/DTD/svg11.dtd"><svg t="1750166961117" class="icon" viewBox="0 0 1071 1024" version="1.1" xmlns="http://www.w3.org/2000/svg" p-id="2119" xmlns:xlink="http://www.w3.org/1999/xlink" width="29.28515625" height="28"><path d="M531.377664 510.890567m-478.830312 0a478.830313 478.830313 0 1 0 957.660625 0 478.830313 478.830313 0 1 0-957.660625 0Z" fill="#81BAC4" p-id="2120"></path><path d="M531.377664 1021.789685c-281.710409 0-510.894843-229.184434-510.894842-510.894842s229.184434-510.894843 510.894842-510.894843 510.894843 229.184434 510.894843 510.894843c0 281.706134-229.184434 510.894843-510.894843 510.894842z m0-957.664901c-246.349645 0-446.765783 200.416137-446.765783 446.765783s200.416137 446.765783 446.765783 446.765783c246.34537 0 446.765783-200.420413 446.765783-446.765783s-200.420413-446.765783-446.765783-446.765783z" fill="#81BAC4" p-id="2121"></path><path d="M597.644359 816.576694m-76.954871 0a76.954872 76.954872 0 1 0 153.909743 0 76.954872 76.954872 0 1 0-153.909743 0Z" opacity=".7" p-id="2122"></path><path d="M319.315689 359.554537m-41.051148 0a41.051149 41.051149 0 1 0 82.102297 0 41.051149 41.051149 0 1 0-82.102297 0Z" opacity=".45" p-id="2123"></path><path d="M709.070738 428.70704l67.754489 67.733112c22.218582 22.231407 50.183127 30.649415 62.132509 18.708585 11.940831-11.936556 21.709824-47.442678 21.709824-78.887294v-61.050865c0-31.44034 18.195552-75.368746 40.431235-97.604429l87.027409-87.027409c22.231407-22.231407 40.426959-63.167124 40.426959-90.960659 0-27.789259-22.735889-50.529424-50.525148-50.529423-27.79781 0-68.729251 18.191277-90.964934 40.426959L809.223228 167.359745c-22.222857 22.235683-66.159813 40.426959-97.583052 40.426959h-77.758623c-31.44034 0-67.126024 9.961381-79.310546 22.133076-12.193072 12.180246-3.9418 40.332903 18.293884 62.564311l136.205847 136.222949" fill="#FFDF8F" p-id="2124"></path><path d="M823.964362 552.64286c-0.004275 0-0.004275 0 0 0-22.731614 0-48.832141-12.539369-69.819445-33.535223L550.18458 315.155851c-14.493167-14.493167-25.206996-31.795188-30.157759-48.720984-6.810506-23.278849-2.483932-44.85614 11.872426-59.203948 21.671347-21.649971 68.053758-31.51302 101.973756-31.51302h77.758622c22.971029 0 58.673814-14.788161 74.907017-31.029914l77.844128-77.848404C892.787669 38.443234 941.641186 17.024128 978.028015 17.024128c45.540183 0 82.589678 37.053771 82.589678 82.593953 0 36.382553-21.419106 85.236071-49.815453 113.636694l-87.02741 87.02741c-16.250304 16.246028-31.04274 51.957364-31.04274 74.932668v61.050865c0 33.941374-9.730516 80.199802-31.102594 101.56333-9.568056 9.55523-22.941102 14.813813-37.665134 14.813812zM582.039621 249.940873c1.731485 4.788303 5.805818 12.180246 13.492755 19.867182l203.960336 203.956062c7.5031 7.507375 14.719757 11.628736 19.525161 13.497029 4.318023-9.940004 9.580882-29.879867 9.580882-50.999703v-61.050865c0-40.170443 21.419106-91.875566 49.824004-120.280464l87.023134-87.023135c17.76375-17.76375 31.038465-50.70471 31.038465-68.288898 0-10.008409-8.456485-18.464894-18.460619-18.464894-17.584188 0-50.529424 13.27044-68.293173 31.03419l-77.839853 77.844128c-28.387797 28.400623-80.08437 49.819729-120.259088 49.819729h-77.758622c-21.637145 0-42.02591 5.609155-51.833382 10.089639z" fill="#FFDF8F" p-id="2125"></path><path d="M605.814401 498.227216a31.961923 31.961923 0 0 1-22.676035-9.39277 32.055979 32.055979 0 0 1 0.004275-45.343521l117.839285-117.835009a32.055979 32.055979 0 0 1 45.343521 0 32.055979 32.055979 0 0 1-0.004276 45.34352l-117.839285 117.83501a31.936272 31.936272 0 0 1-22.667485 9.39277z" fill="#D4B977" p-id="2126"></path><path d="M69.793793 850.710455c-11.543231 0-22.757266-1.004689-33.49247-3.210728a32.06453 32.06453 0 0 1 12.898492-62.816552c87.856812 18.020266 285.857421-90.439075 432.328193-236.901297a32.06453 32.06453 0 0 1 45.347796 45.347795c-76.065615 76.057065-166.444837 144.328862-254.498311 192.24182-57.442536 31.252228-135.483327 65.338961-202.5837 65.338962z" fill="#6A99A1" p-id="2127"></path></svg>