<?xml version="1.0" standalone="no"?><!DOCTYPE svg PUBLIC "-//W3C//DTD SVG 1.1//EN" "http://www.w3.org/Graphics/SVG/1.1/DTD/svg11.dtd"><svg t="1750166944193" class="icon" viewBox="0 0 1154 1024" version="1.1" xmlns="http://www.w3.org/2000/svg" p-id="1622" xmlns:xlink="http://www.w3.org/1999/xlink" width="31.5546875" height="28"><path d="M1108.169438 512.004613c0 257.291508-208.583197 465.870092-465.879317 465.870092-28.15488 0-55.714744-2.495378-82.490478-7.269347-217.946632-38.943587-383.38884-229.454893-383.38884-458.600745 0-229.141241 165.432983-419.647934 383.375003-458.596134A468.969712 468.969712 0 0 1 642.290121 46.125295c257.296121 0 465.879317 208.583197 465.879317 465.879318z" fill="#FFE43F" p-id="1623"></path><path d="M642.290121 1012.468676c-29.713915 0-59.510856-2.624529-88.565179-7.8044-238.679952-42.65206-411.90811-249.842273-411.90811-492.659663 0-242.812778 173.223546-450.002991 411.880435-492.650439A505.32567 505.32567 0 0 1 642.290121 11.531324c275.963028 0 500.473289 224.510261 500.473289 500.473289 0 275.958415-224.510261 500.464064-500.473289 500.464063z m0-931.74941c-25.654889 0-51.369741 2.269365-76.420389 6.743518-205.621953 36.74341-354.864957 215.289815-354.864957 424.541829s149.247617 387.798418 354.878795 424.54644a436.474442 436.474442 0 0 0 76.401938 6.729681c237.812796 0 431.285346-193.467938 431.285347-431.276121 0.004613-237.812796-193.467938-431.285346-431.280734-431.285347z" fill="#FFE43F" p-id="1624"></path><path d="M405.902596 507.410533m-359.777301 0a359.777301 359.777301 0 1 0 719.554603 0 359.777301 359.777301 0 1 0-719.554603 0Z" fill="#4A4A4A" p-id="1625"></path><path d="M405.902596 901.781806c-217.457703 0-394.371273-176.913569-394.371272-394.371273s176.913569-394.371273 394.371272-394.371272 394.371273 176.913569 394.371273 394.371272c0 217.453091-176.913569 394.371273-394.371273 394.371273z m0-719.554603c-179.307472 0-325.18333 145.875858-325.18333 325.18333s145.875858 325.18333 325.18333 325.18333 325.18333-145.875858 325.18333-325.18333-145.875858-325.18333-325.18333-325.18333z" fill="#4A4A4A" p-id="1626"></path></svg>